<?xml version="1.0" encoding="UTF-8" standalone="no"?>
<!DOCTYPE svg PUBLIC "-//W3C//DTD SVG 1.1//EN"
 "http://www.w3.org/Graphics/SVG/1.1/DTD/svg11.dtd">
<!-- Generated by graphviz version 8.0.5 (20230506.1012)
 -->
<!-- Title: snakemake_dag Pages: 1 -->
<svg width="691pt" height="332pt"
 viewBox="0.00 0.00 690.88 332.00" xmlns="http://www.w3.org/2000/svg" xmlns:xlink="http://www.w3.org/1999/xlink">
<g id="graph0" class="graph" transform="scale(1 1) rotate(0) translate(4 328)">
<title>snakemake_dag</title>
<polygon fill="white" stroke="none" points="-4,4 -4,-328 686.88,-328 686.88,4 -4,4"/>
<!-- 0 -->
<g id="node1" class="node">
<title>0</title>
<path fill="none" stroke="#567bd8" stroke-width="2" d="M209.88,-252C209.88,-252 165.38,-252 165.38,-252 159.38,-252 153.38,-246 153.38,-240 153.38,-240 153.38,-228 153.38,-228 153.38,-222 159.38,-216 165.38,-216 165.38,-216 209.88,-216 209.88,-216 215.88,-216 221.88,-222 221.88,-228 221.88,-228 221.88,-240 221.88,-240 221.88,-246 215.88,-252 209.88,-252"/>
<text text-anchor="middle" x="187.62" y="-230.88" font-family="sans" font-size="10.00">zcat_reads</text>
</g>
<!-- 3 -->
<g id="node4" class="node">
<title>3</title>
<path fill="none" stroke="#569ad8" stroke-width="2" d="M197.25,-108C197.25,-108 146,-108 146,-108 140,-108 134,-102 134,-96 134,-96 134,-84 134,-84 134,-78 140,-72 146,-72 146,-72 197.25,-72 197.25,-72 203.25,-72 209.25,-78 209.25,-84 209.25,-84 209.25,-96 209.25,-96 209.25,-102 203.25,-108 197.25,-108"/>
<text text-anchor="middle" x="171.62" y="-86.88" font-family="sans" font-size="10.00">seqkit_stats</text>
</g>
<!-- 0&#45;&gt;3 -->
<g id="edge3" class="edge">
<title>0&#45;&gt;3</title>
<path fill="none" stroke="grey" stroke-width="2" d="M176.74,-215.08C171.33,-205.13 165.38,-192.31 162.62,-180 158.32,-160.77 160.49,-138.74 163.78,-121.41"/>
<polygon fill="grey" stroke="grey" stroke-width="2" points="167.79,-121.45 166.49,-110.93 160.95,-119.96 167.79,-121.45"/>
</g>
<!-- 9 -->
<g id="node10" class="node">
<title>9</title>
<path fill="none" stroke="#56d87b" stroke-width="2" d="M278,-180C278,-180 183.25,-180 183.25,-180 177.25,-180 171.25,-174 171.25,-168 171.25,-168 171.25,-156 171.25,-156 171.25,-150 177.25,-144 183.25,-144 183.25,-144 278,-144 278,-144 284,-144 290,-150 290,-156 290,-156 290,-168 290,-168 290,-174 284,-180 278,-180"/>
<text text-anchor="middle" x="230.62" y="-158.88" font-family="sans" font-size="10.00">jellyfish_count_reads</text>
</g>
<!-- 0&#45;&gt;9 -->
<g id="edge10" class="edge">
<title>0&#45;&gt;9</title>
<path fill="none" stroke="grey" stroke-width="2" d="M198.48,-215.34C202.87,-208.18 208.06,-199.73 212.98,-191.73"/>
<polygon fill="grey" stroke="grey" stroke-width="2" points="216.38,-193.25 218.63,-182.9 210.41,-189.59 216.38,-193.25"/>
</g>
<!-- 15 -->
<g id="node16" class="node">
<title>15</title>
<path fill="none" stroke="#d85656" stroke-width="2" d="M239.62,-36C239.62,-36 209.62,-36 209.62,-36 203.62,-36 197.62,-30 197.62,-24 197.62,-24 197.62,-12 197.62,-12 197.62,-6 203.62,0 209.62,0 209.62,0 239.62,0 239.62,0 245.62,0 251.62,-6 251.62,-12 251.62,-12 251.62,-24 251.62,-24 251.62,-30 245.62,-36 239.62,-36"/>
<text text-anchor="middle" x="224.62" y="-14.88" font-family="sans" font-size="10.00">all</text>
</g>
<!-- 0&#45;&gt;15 -->
<g id="edge16" class="edge">
<title>0&#45;&gt;15</title>
<path fill="none" stroke="grey" stroke-width="2" d="M170.49,-215.19C143.14,-184.51 95.53,-120.35 124.62,-72 137.67,-50.33 162.88,-37.05 184.73,-29.2"/>
<polygon fill="grey" stroke="grey" stroke-width="2" points="186.65,-31.61 195.08,-25.19 184.49,-24.95 186.65,-31.61"/>
</g>
<!-- 1 -->
<g id="node2" class="node">
<title>1</title>
<path fill="none" stroke="#d87556" stroke-width="2" d="M213.25,-324C213.25,-324 156,-324 156,-324 150,-324 144,-318 144,-312 144,-312 144,-300 144,-300 144,-294 150,-288 156,-288 156,-288 213.25,-288 213.25,-288 219.25,-288 225.25,-294 225.25,-300 225.25,-300 225.25,-312 225.25,-312 225.25,-318 219.25,-324 213.25,-324"/>
<text text-anchor="middle" x="184.62" y="-302.88" font-family="sans" font-size="10.00">ascp_forward</text>
</g>
<!-- 1&#45;&gt;0 -->
<g id="edge2" class="edge">
<title>1&#45;&gt;0</title>
<path fill="none" stroke="grey" stroke-width="2" d="M185.38,-287.34C185.66,-280.75 185.99,-273.08 186.31,-265.67"/>
<polygon fill="grey" stroke="grey" stroke-width="2" points="189.93,-266.04 186.86,-255.9 182.93,-265.74 189.93,-266.04"/>
</g>
<!-- 4 -->
<g id="node5" class="node">
<title>4</title>
<path fill="none" stroke="#56d8d8" stroke-width="2" d="M123.25,-252C123.25,-252 12,-252 12,-252 6,-252 0,-246 0,-240 0,-240 0,-228 0,-228 0,-222 6,-216 12,-216 12,-216 123.25,-216 123.25,-216 129.25,-216 135.25,-222 135.25,-228 135.25,-228 135.25,-240 135.25,-240 135.25,-246 129.25,-252 123.25,-252"/>
<text text-anchor="middle" x="67.62" y="-230.88" font-family="sans" font-size="10.00">md5sum_check_forward</text>
</g>
<!-- 1&#45;&gt;4 -->
<g id="edge5" class="edge">
<title>1&#45;&gt;4</title>
<path fill="none" stroke="grey" stroke-width="2" d="M154.8,-287.15C140.63,-278.68 123.49,-268.42 108.17,-259.25"/>
<polygon fill="grey" stroke="grey" stroke-width="2" points="109.78,-255.94 99.4,-253.81 106.18,-261.95 109.78,-255.94"/>
</g>
<!-- 2 -->
<g id="node3" class="node">
<title>2</title>
<path fill="none" stroke="#d8b456" stroke-width="2" d="M421.88,-324C421.88,-324 365.38,-324 365.38,-324 359.38,-324 353.38,-318 353.38,-312 353.38,-312 353.38,-300 353.38,-300 353.38,-294 359.38,-288 365.38,-288 365.38,-288 421.88,-288 421.88,-288 427.88,-288 433.88,-294 433.88,-300 433.88,-300 433.88,-312 433.88,-312 433.88,-318 427.88,-324 421.88,-324"/>
<text text-anchor="middle" x="393.62" y="-302.88" font-family="sans" font-size="10.00">ascp_reverse</text>
</g>
<!-- 2&#45;&gt;0 -->
<g id="edge1" class="edge">
<title>2&#45;&gt;0</title>
<path fill="none" stroke="grey" stroke-width="2" d="M352.43,-291C318.4,-279.44 270.09,-263.02 234.57,-250.95"/>
<polygon fill="grey" stroke="grey" stroke-width="2" points="235.18,-246.78 224.58,-246.88 232.92,-253.41 235.18,-246.78"/>
</g>
<!-- 6 -->
<g id="node7" class="node">
<title>6</title>
<path fill="none" stroke="#56b9d8" stroke-width="2" d="M670.88,-252C670.88,-252 560.38,-252 560.38,-252 554.38,-252 548.38,-246 548.38,-240 548.38,-240 548.38,-228 548.38,-228 548.38,-222 554.38,-216 560.38,-216 560.38,-216 670.88,-216 670.88,-216 676.88,-216 682.88,-222 682.88,-228 682.88,-228 682.88,-240 682.88,-240 682.88,-246 676.88,-252 670.88,-252"/>
<text text-anchor="middle" x="615.62" y="-230.88" font-family="sans" font-size="10.00">md5sum_check_reverse</text>
</g>
<!-- 2&#45;&gt;6 -->
<g id="edge7" class="edge">
<title>2&#45;&gt;6</title>
<path fill="none" stroke="grey" stroke-width="2" d="M434.86,-292C466.18,-282.12 509.96,-268.32 546.59,-256.77"/>
<polygon fill="grey" stroke="grey" stroke-width="2" points="548.22,-259.29 556.71,-252.95 546.12,-252.62 548.22,-259.29"/>
</g>
<!-- 3&#45;&gt;15 -->
<g id="edge19" class="edge">
<title>3&#45;&gt;15</title>
<path fill="none" stroke="grey" stroke-width="2" d="M185,-71.34C190.54,-64.01 197.11,-55.34 203.29,-47.18"/>
<polygon fill="grey" stroke="grey" stroke-width="2" points="206.82,-48.99 210.07,-38.9 201.24,-44.76 206.82,-48.99"/>
</g>
<!-- 4&#45;&gt;15 -->
<g id="edge15" class="edge">
<title>4&#45;&gt;15</title>
<path fill="none" stroke="grey" stroke-width="2" d="M67.81,-215.07C69.07,-182.77 76.09,-114.24 111.62,-72 130.28,-49.83 160.27,-36.36 184.67,-28.55"/>
<polygon fill="grey" stroke="grey" stroke-width="2" points="186.22,-31.15 194.82,-24.97 184.24,-24.44 186.22,-31.15"/>
</g>
<!-- 5 -->
<g id="node6" class="node">
<title>5</title>
<path fill="none" stroke="#d89556" stroke-width="2" d="M109.75,-324C109.75,-324 25.5,-324 25.5,-324 19.5,-324 13.5,-318 13.5,-312 13.5,-312 13.5,-300 13.5,-300 13.5,-294 19.5,-288 25.5,-288 25.5,-288 109.75,-288 109.75,-288 115.75,-288 121.75,-294 121.75,-300 121.75,-300 121.75,-312 121.75,-312 121.75,-318 115.75,-324 109.75,-324"/>
<text text-anchor="middle" x="67.62" y="-302.88" font-family="sans" font-size="10.00">ascp_forward_md5</text>
</g>
<!-- 5&#45;&gt;4 -->
<g id="edge4" class="edge">
<title>5&#45;&gt;4</title>
<path fill="none" stroke="grey" stroke-width="2" d="M67.62,-287.34C67.62,-280.75 67.62,-273.08 67.62,-265.67"/>
<polygon fill="grey" stroke="grey" stroke-width="2" points="71.13,-265.9 67.62,-255.9 64.13,-265.9 71.13,-265.9"/>
</g>
<!-- 6&#45;&gt;15 -->
<g id="edge20" class="edge">
<title>6&#45;&gt;15</title>
<path fill="none" stroke="grey" stroke-width="2" d="M616.55,-215.12C616.6,-195.43 613.67,-163.93 596.62,-144 511.08,-44 342.85,-23.74 265.41,-19.82"/>
<polygon fill="grey" stroke="grey" stroke-width="2" points="265.62,-16.2 255.48,-19.28 265.32,-23.2 265.62,-16.2"/>
</g>
<!-- 7 -->
<g id="node8" class="node">
<title>7</title>
<path fill="none" stroke="#d6d856" stroke-width="2" d="M657.38,-324C657.38,-324 573.88,-324 573.88,-324 567.88,-324 561.88,-318 561.88,-312 561.88,-312 561.88,-300 561.88,-300 561.88,-294 567.88,-288 573.88,-288 573.88,-288 657.38,-288 657.38,-288 663.38,-288 669.38,-294 669.38,-300 669.38,-300 669.38,-312 669.38,-312 669.38,-318 663.38,-324 657.38,-324"/>
<text text-anchor="middle" x="615.62" y="-302.88" font-family="sans" font-size="10.00">ascp_reverse_md5</text>
</g>
<!-- 7&#45;&gt;6 -->
<g id="edge6" class="edge">
<title>7&#45;&gt;6</title>
<path fill="none" stroke="grey" stroke-width="2" d="M615.62,-287.34C615.62,-280.75 615.62,-273.08 615.62,-265.67"/>
<polygon fill="grey" stroke="grey" stroke-width="2" points="619.13,-265.9 615.62,-255.9 612.13,-265.9 619.13,-265.9"/>
</g>
<!-- 8 -->
<g id="node9" class="node">
<title>8</title>
<path fill="none" stroke="#56d8b9" stroke-width="2" d="M387.62,-108C387.62,-108 357.62,-108 357.62,-108 351.62,-108 345.62,-102 345.62,-96 345.62,-96 345.62,-84 345.62,-84 345.62,-78 351.62,-72 357.62,-72 357.62,-72 387.62,-72 387.62,-72 393.62,-72 399.62,-78 399.62,-84 399.62,-84 399.62,-96 399.62,-96 399.62,-102 393.62,-108 387.62,-108"/>
<text text-anchor="middle" x="372.62" y="-86.88" font-family="sans" font-size="10.00">kat_hifi</text>
</g>
<!-- 8&#45;&gt;15 -->
<g id="edge18" class="edge">
<title>8&#45;&gt;15</title>
<path fill="none" stroke="grey" stroke-width="2" d="M344.79,-75.83C322.02,-65.06 289.54,-49.7 264.09,-37.66"/>
<polygon fill="grey" stroke="grey" stroke-width="2" points="265.13,-34.34 254.59,-33.23 262.13,-40.67 265.13,-34.34"/>
</g>
<!-- 9&#45;&gt;8 -->
<g id="edge9" class="edge">
<title>9&#45;&gt;8</title>
<path fill="none" stroke="grey" stroke-width="2" d="M266.83,-143.15C287.16,-133.13 312.55,-120.62 333.36,-110.36"/>
<polygon fill="grey" stroke="grey" stroke-width="2" points="335.59,-113.17 343.01,-105.61 332.49,-106.9 335.59,-113.17"/>
</g>
<!-- 12 -->
<g id="node13" class="node">
<title>12</title>
<path fill="none" stroke="#56d89a" stroke-width="2" d="M315.62,-108C315.62,-108 239.62,-108 239.62,-108 233.62,-108 227.62,-102 227.62,-96 227.62,-96 227.62,-84 227.62,-84 227.62,-78 233.62,-72 239.62,-72 239.62,-72 315.62,-72 315.62,-72 321.62,-72 327.62,-78 327.62,-84 327.62,-84 327.62,-96 327.62,-96 327.62,-102 321.62,-108 315.62,-108"/>
<text text-anchor="middle" x="277.62" y="-86.88" font-family="sans" font-size="10.00">kat_chromosome</text>
</g>
<!-- 9&#45;&gt;12 -->
<g id="edge13" class="edge">
<title>9&#45;&gt;12</title>
<path fill="none" stroke="grey" stroke-width="2" d="M242.49,-143.34C247.35,-136.1 253.1,-127.53 258.52,-119.45"/>
<polygon fill="grey" stroke="grey" stroke-width="2" points="261.94,-121.16 264.61,-110.9 256.13,-117.25 261.94,-121.16"/>
</g>
<!-- 10 -->
<g id="node11" class="node">
<title>10</title>
<path fill="none" stroke="#59d856" stroke-width="2" d="M576,-180C576,-180 493.25,-180 493.25,-180 487.25,-180 481.25,-174 481.25,-168 481.25,-168 481.25,-156 481.25,-156 481.25,-150 487.25,-144 493.25,-144 493.25,-144 576,-144 576,-144 582,-144 588,-150 588,-156 588,-156 588,-168 588,-168 588,-174 582,-180 576,-180"/>
<text text-anchor="middle" x="534.62" y="-158.88" font-family="sans" font-size="10.00">jellyfish_count_hifi</text>
</g>
<!-- 10&#45;&gt;8 -->
<g id="edge8" class="edge">
<title>10&#45;&gt;8</title>
<path fill="none" stroke="grey" stroke-width="2" d="M493.33,-143.15C468.47,-132.41 436.98,-118.81 412.4,-108.18"/>
<polygon fill="grey" stroke="grey" stroke-width="2" points="413.16,-104.84 402.59,-104.09 410.38,-111.26 413.16,-104.84"/>
</g>
<!-- 11 -->
<g id="node12" class="node">
<title>11</title>
<path fill="none" stroke="#97d856" stroke-width="2" d="M517.88,-252C517.88,-252 473.38,-252 473.38,-252 467.38,-252 461.38,-246 461.38,-240 461.38,-240 461.38,-228 461.38,-228 461.38,-222 467.38,-216 473.38,-216 473.38,-216 517.88,-216 517.88,-216 523.88,-216 529.88,-222 529.88,-228 529.88,-228 529.88,-240 529.88,-240 529.88,-246 523.88,-252 517.88,-252"/>
<text text-anchor="middle" x="495.62" y="-230.88" font-family="sans" font-size="10.00">gunzip_hifi</text>
</g>
<!-- 11&#45;&gt;10 -->
<g id="edge11" class="edge">
<title>11&#45;&gt;10</title>
<path fill="none" stroke="grey" stroke-width="2" d="M505.47,-215.34C509.41,-208.26 514.05,-199.92 518.47,-192"/>
<polygon fill="grey" stroke="grey" stroke-width="2" points="521.84,-193.34 523.65,-182.9 515.73,-189.93 521.84,-193.34"/>
</g>
<!-- 12&#45;&gt;15 -->
<g id="edge17" class="edge">
<title>12&#45;&gt;15</title>
<path fill="none" stroke="grey" stroke-width="2" d="M264.25,-71.34C258.71,-64.01 252.14,-55.34 245.96,-47.18"/>
<polygon fill="grey" stroke="grey" stroke-width="2" points="248.01,-44.76 239.18,-38.9 242.43,-48.99 248.01,-44.76"/>
</g>
<!-- 13 -->
<g id="node14" class="node">
<title>13</title>
<path fill="none" stroke="#78d856" stroke-width="2" d="M451.38,-180C451.38,-180 319.88,-180 319.88,-180 313.88,-180 307.88,-174 307.88,-168 307.88,-168 307.88,-156 307.88,-156 307.88,-150 313.88,-144 319.88,-144 319.88,-144 451.38,-144 451.38,-144 457.38,-144 463.38,-150 463.38,-156 463.38,-156 463.38,-168 463.38,-168 463.38,-174 457.38,-180 451.38,-180"/>
<text text-anchor="middle" x="385.62" y="-158.88" font-family="sans" font-size="10.00">jellyfish_count_chromosome</text>
</g>
<!-- 13&#45;&gt;12 -->
<g id="edge12" class="edge">
<title>13&#45;&gt;12</title>
<path fill="none" stroke="grey" stroke-width="2" d="M358.09,-143.15C345.27,-134.84 329.81,-124.82 315.87,-115.79"/>
<polygon fill="grey" stroke="grey" stroke-width="2" points="317.4,-112.31 307.11,-109.81 313.6,-118.19 317.4,-112.31"/>
</g>
<!-- 14 -->
<g id="node15" class="node">
<title>14</title>
<path fill="none" stroke="#b6d856" stroke-width="2" d="M431.25,-252C431.25,-252 338,-252 338,-252 332,-252 326,-246 326,-240 326,-240 326,-228 326,-228 326,-222 332,-216 338,-216 338,-216 431.25,-216 431.25,-216 437.25,-216 443.25,-222 443.25,-228 443.25,-228 443.25,-240 443.25,-240 443.25,-246 437.25,-252 431.25,-252"/>
<text text-anchor="middle" x="384.62" y="-230.88" font-family="sans" font-size="10.00">gunzip_chromosome</text>
</g>
<!-- 14&#45;&gt;13 -->
<g id="edge14" class="edge">
<title>14&#45;&gt;13</title>
<path fill="none" stroke="grey" stroke-width="2" d="M384.88,-215.34C384.97,-208.75 385.08,-201.08 385.19,-193.67"/>
<polygon fill="grey" stroke="grey" stroke-width="2" points="388.73,-193.95 385.37,-183.9 381.73,-193.85 388.73,-193.95"/>
</g>
</g>
</svg>
